<svg width="40" height="40" viewBox="0 0 40 40" fill="none" xmlns="http://www.w3.org/2000/svg">
<g clip-path="url(#clip0_128_181)">
<path d="M23.73 11.9325H24.0325C26.1775 11.9325 27.9375 12.6475 29.2575 13.83C30.935 15.315 31.815 17.68 31.815 20.265C31.815 23.125 30.6325 24.8575 28.9275 26.095C27.58 27.0575 25.6825 27.6625 23.5375 27.6625H23.29C22.8225 28.4325 22.1625 29.0925 21.3925 29.6425C19.9075 30.7425 18.0375 31.5125 15.6725 31.98C15.535 32.0075 15.3975 32.035 15.2875 32.035C15.1775 32.035 15.1225 31.9525 15.1225 31.87C15.1225 31.815 15.1775 31.7325 15.26 31.6775C17.2675 30.7975 18.4225 29.78 19.33 28.8725C19.825 28.3775 20.2375 27.8825 20.5675 27.3325C19.55 27.0575 18.6975 26.645 18.0375 26.0125C16.745 24.8025 15.92 22.8775 15.92 19.4125V18.2025C14.8475 19.715 14.0225 21.255 13.445 22.575C13.0325 23.51 12.7025 24.5 12.7025 25.05C12.7025 25.38 12.8675 25.82 13.06 26.1775C13.225 26.5075 13.335 26.865 13.335 27.2225C13.335 27.965 12.7575 28.5425 11.9325 28.5425C10.97 28.5425 10.035 27.8825 9.2925 26.81C8.55 25.7375 8 24.225 8 22.355C8 21.365 8.1375 20.3475 8.3025 19.385C8.5775 17.79 8.935 16.195 9.265 14.71C9.43 13.9125 9.65 12.785 9.65 12.345C9.65 11.85 9.375 11.3825 8.77 10.64C8.715 10.585 8.715 10.53 8.715 10.475C8.715 10.3375 8.8525 10.255 9.045 10.2825C9.4575 10.3375 9.87 10.475 10.255 10.6675C10.695 10.8875 11.135 11.2175 11.465 11.5475C12.18 12.235 12.6475 13.06 12.6475 13.8575C12.6475 14.2975 12.5375 14.71 12.29 15.0675C12.07 15.3975 11.8225 15.81 11.63 16.25C11.1075 17.405 10.585 18.835 10.255 20.0175C10.0625 20.7325 9.87 21.695 9.87 22.2725C9.87 23.0975 10.1175 23.4275 10.365 23.4275C10.6675 23.4275 10.9975 22.8775 11.575 21.97C12.5375 20.5125 13.9675 18.23 16.0025 16.0575C16.03 15.975 16.03 15.8925 16.03 15.81C16.25 12.785 17.075 10.64 17.79 9.54C18.5875 8.385 19.4125 8 20.0725 8C21.09 8 22.08 8.495 22.795 9.5675C23.1525 10.09 23.455 10.8875 23.73 11.9325ZM29.0375 18.9175C29.0375 16.855 28.625 15.15 27.36 13.995C26.425 13.1425 25.105 12.8675 23.9225 12.8675C24.335 14.9575 24.5825 17.7625 24.5825 21.035C24.5825 22.355 24.5 23.5375 24.335 24.61C25.5725 24.4175 26.48 24.005 27.14 23.5375C28.5425 22.5475 29.0375 20.7875 29.0375 18.9175ZM17.2125 14.875C18.5325 13.72 19.88 12.8125 21.585 12.29C21.42 11.2725 21.1725 10.4475 20.9525 9.87C20.705 9.2925 20.2925 9.0175 19.825 9.0175C19.5225 9.0175 19.055 9.155 18.5325 9.8975C17.9 10.8875 17.3775 12.5375 17.2125 14.875ZM17.1575 16.69V17.735C17.1575 21.145 18.2025 22.9325 19.3575 23.8125C20.0175 24.3075 20.7325 24.555 21.53 24.665C21.9425 22.74 22.025 20.485 22.025 17.735C22.025 16.0025 21.915 14.5175 21.75 13.3075C20.2925 13.83 18.89 14.875 17.735 16.0575C17.5425 16.2775 17.35 16.47 17.1575 16.69Z" fill="white"/>
</g>
<defs>
<clipPath id="clip0_128_181">
<rect width="40" height="40" fill="white"/>
</clipPath>
</defs>
</svg>
