<svg width="24" height="24" viewBox="0 0 24 24" fill="none" xmlns="http://www.w3.org/2000/svg">
<path fill-rule="evenodd" clip-rule="evenodd" d="M12.5815 15.7529C12.2802 15.5231 11.8831 15.0961 11.5706 14.4459C11.2582 13.793 11.07 12.9945 11.0117 12.1001C10.9846 11.6464 11.0012 11.1482 11.0985 10.6344C11.1915 10.1199 11.3796 9.60613 11.5553 9.16937C11.7317 8.73064 11.8608 8.3761 11.9358 8.01964C12.0122 7.66515 12.0413 7.30803 12.0441 6.9509C12.0441 6.22357 11.9692 5.56615 11.8574 5.05755C11.8004 4.78865 11.73 4.54312 11.6656 4.31873L11.6656 4.31871C11.6068 4.11378 11.5531 3.92647 11.5193 3.75507C11.4478 3.39924 11.4874 3.14461 11.6776 3.04408C11.8664 2.94351 12.1108 3.01663 12.4177 3.24711C12.7191 3.47692 13.1176 3.90324 13.4293 4.55414C13.7418 5.20702 13.9299 6.0055 13.9889 6.89992C14.0146 7.3537 13.9994 7.8518 13.9022 8.36628C13.8091 8.87943 13.6203 9.39387 13.4446 9.83001C13.269 10.2687 13.1398 10.6233 13.0648 10.9797C12.9884 11.3342 12.9593 11.6913 12.9565 12.0485C12.9565 12.7764 13.0314 13.4332 13.1432 13.9424C13.2003 14.2117 13.2708 14.4577 13.3353 14.6825L13.3353 14.6825C13.394 14.8871 13.4476 15.0741 13.4814 15.2449C13.5522 15.6014 13.5119 15.8554 13.3217 15.9559C13.1328 16.0565 12.8884 15.9834 12.5815 15.7529ZM21.8681 12.2955C22.1796 12.5824 22.6052 13.062 22.759 13.478C22.912 13.8927 23.0007 14.3462 23 14.8194C23.0007 15.3086 22.9033 15.7869 22.7261 16.2327C22.4165 17.0144 21.8767 17.6912 21.198 18.27C20.1761 19.1376 18.8267 19.8055 17.2596 20.2736C15.692 20.7398 13.9027 21 12 21C10.0973 21 8.30804 20.7398 6.74037 20.2736C5.17338 19.8055 3.82386 19.1376 2.80202 18.27C2.12325 17.6912 1.58412 17.0144 1.27393 16.2327C1.09668 15.7869 1 15.3086 1 14.8194C1 14.3462 1.08796 13.8927 1.24174 13.478C1.3948 13.062 1.82049 12.5824 2.13334 12.2955C2.77073 11.7087 3.45181 11.3759 3.87666 11.1682C3.94317 11.1357 4.0034 11.1063 4.05619 11.0794C4.34486 10.9147 4.71413 11.0145 4.8793 11.3026C5.04512 11.5902 4.93568 11.9419 4.65638 12.1225C2.81405 13.3126 2.51061 14.7393 3.84264 16.2283C4.24148 16.6729 4.77321 17.0246 5.55335 17.4393C6.83099 18.1173 9.46751 18.7139 12 18.7108C14.5324 18.714 17.169 18.1173 18.4466 17.4393C19.2275 17.0246 19.7592 16.6729 20.1574 16.2283C21.4894 14.7393 21.1859 13.3126 19.345 12.1225C19.0643 11.9419 18.9556 11.5902 19.1207 11.3026C19.2872 11.0145 19.6552 10.9147 19.9452 11.0794C19.9983 11.1064 20.0588 11.1361 20.1257 11.1688C20.5501 11.3765 21.2301 11.7093 21.8681 12.2955ZM15.179 13.5964C15.2692 13.9726 15.3948 14.3236 15.5478 14.6272C15.8578 15.2418 16.2443 15.6193 16.5297 15.8122C16.822 16.0057 17.0541 16.0526 17.2351 15.9392C17.416 15.8258 17.4543 15.5766 17.3867 15.2411C17.3546 15.0776 17.3035 14.9016 17.2483 14.7117L17.2483 14.7117C17.1893 14.5088 17.1257 14.2901 17.076 14.0541C16.9763 13.6032 16.9108 13.011 16.9203 12.3557C16.9271 12.0359 16.9599 11.7221 17.035 11.4125C17.1101 11.1008 17.2351 10.7891 17.4106 10.3884C17.584 9.99116 17.78 9.5097 17.8831 9.01738C17.9896 8.52506 18.0142 8.04221 17.9931 7.60761C17.9705 7.17096 17.9118 6.78116 17.8217 6.40292C17.7315 6.02738 17.6059 5.67631 17.4523 5.37278C17.1429 4.75755 16.7565 4.37997 16.4703 4.18778C16.1781 3.99425 15.9459 3.9474 15.765 4.06079C15.584 4.17418 15.5465 4.42273 15.6134 4.7589C15.6455 4.92115 15.6965 5.09611 15.7514 5.28476C15.8108 5.48853 15.8748 5.70828 15.9247 5.94524C16.0244 6.39614 16.09 6.98829 16.0804 7.64294C16.0722 7.96276 16.0402 8.27651 15.9644 8.58616C15.8893 8.89786 15.7636 9.20956 15.5888 9.61088C15.414 10.0081 15.2187 10.4903 15.1163 10.9826C15.0097 11.4756 14.9859 11.9578 15.007 12.3917C15.0302 12.8283 15.0889 13.2181 15.179 13.5964ZM6.54882 14.6272C6.39451 14.3237 6.26887 13.9726 6.17871 13.5964C6.08925 13.2182 6.03122 12.8284 6.00731 12.3918C5.98546 11.9579 6.01002 11.4751 6.11587 10.9827C6.219 10.4904 6.41496 10.0083 6.58841 9.61102C6.76458 9.20971 6.88886 8.89801 6.96399 8.58632C7.03976 8.27667 7.07184 7.96293 7.08006 7.64311C7.08958 6.98847 7.02403 6.39633 6.92435 5.94544C6.87457 5.70911 6.81109 5.49023 6.75223 5.28727C6.69726 5.09774 6.64632 4.9221 6.61433 4.75911C6.54607 4.42295 6.58431 4.1744 6.76458 4.06102C6.9462 3.94758 7.17834 3.99378 7.47062 4.18731C7.75604 4.38014 8.14253 4.75837 8.45255 5.37294C8.60551 5.67646 8.73251 6.02753 8.82266 6.40307C8.91147 6.78199 8.97016 7.17109 8.99271 7.60773C9.01456 8.04233 8.98995 8.52517 8.88275 9.01748C8.78032 9.5098 8.58501 9.99125 8.41091 10.3885C8.23474 10.7892 8.11046 11.1009 8.03603 11.4126C7.96025 11.7222 7.92748 12.0359 7.91996 12.3558C7.91043 13.0111 7.97599 13.6032 8.07567 14.0541C8.12561 14.2894 8.18911 14.5077 8.24801 14.7101C8.3035 14.9007 8.35491 15.0774 8.38704 15.2411C8.45465 15.5766 8.41707 15.8258 8.23544 15.9392C8.05517 16.0526 7.82303 16.0057 7.53075 15.8122C7.24394 15.6193 6.85884 15.2418 6.54882 14.6272Z" fill="#21C0A6"/>
</svg>
