<svg width="40" height="40" viewBox="0 0 40 40" fill="none" xmlns="http://www.w3.org/2000/svg">
<g clip-path="url(#clip0_32_346)">
<path d="M5.6665 39V40H6.6665H33.3332H34.3332V39V34.3334C34.3332 32.1797 32.783 30.1084 30.6317 28.5596C28.8145 27.2515 26.4328 26.2082 23.7443 25.6901C24.3535 25.3491 24.9185 24.9236 25.421 24.4212C26.8588 22.9834 27.6665 21.0334 27.6665 19C27.6665 16.9667 26.8588 15.0167 25.421 13.5789C23.9832 12.1411 22.0332 11.3334 19.9998 11.3334C17.9665 11.3334 16.0165 12.1411 14.5787 13.5789C13.1409 15.0167 12.3332 16.9667 12.3332 19C12.3332 21.0334 13.1409 22.9834 14.5787 24.4212C15.0811 24.9236 15.6462 25.3491 16.2554 25.6901C13.5669 26.2082 11.1851 27.2515 9.36802 28.5596C7.21669 30.1084 5.6665 32.1797 5.6665 34.3334V39Z" stroke="#190D09" stroke-width="2"/>
<path d="M33.0185 29.3037C34.8953 26.6821 36 23.4701 36 20C36 11.1634 28.8366 4 20 4C11.1634 4 4 11.1634 4 20C4 23.47 5.10462 26.682 6.9814 29.3035C7.52718 28.7337 8.13935 28.212 8.78377 27.7481C10.2304 26.7067 11.9973 25.8313 13.9726 25.2276C13.9387 25.1948 13.905 25.1617 13.8716 25.1283C12.2463 23.503 11.3332 21.2986 11.3332 19C11.3332 16.7015 12.2463 14.4971 13.8716 12.8718C15.4969 11.2465 17.7013 10.3334 19.9998 10.3334C22.2984 10.3334 24.5028 11.2465 26.1281 12.8718C27.7534 14.4971 28.6665 16.7015 28.6665 19C28.6665 21.2986 27.7534 23.503 26.1281 25.1283C26.0947 25.1617 26.061 25.1948 26.0271 25.2276C28.0024 25.8313 29.7693 26.7067 31.2159 27.7481C31.8604 28.212 32.4726 28.7338 33.0185 29.3037Z" fill="#FFAC9A"/>
</g>
<rect x="5" y="5" width="30" height="30" rx="15" stroke="#190D09" stroke-width="2"/>
<defs>
<clipPath id="clip0_32_346">
<rect x="4" y="4" width="32" height="32" rx="16" fill="white"/>
</clipPath>
</defs>
</svg>
