<svg width="40" height="40" viewBox="0 0 40 40" fill="none" xmlns="http://www.w3.org/2000/svg">
<rect width="40" height="40" fill="#FFF7E2"/>
<path d="M25 25.1995C25 26.5299 22.7614 28.3659 20 28.3659C17.2386 28.3659 15 26.5299 15 25.1995C15 23.8692 17.2386 25.8659 20 25.8659C22.7614 25.8659 25 23.8692 25 25.1995Z" fill="#190D09"/>
<path d="M8.5 12.7424C8.5 12.7424 5.82526 13.7959 4.82006 13.4728C3.81487 13.1496 4.52399 12.6313 6.40393 12.3151C10.3004 11.6595 8.5 12.7424 8.5 12.7424Z" fill="#190D09"/>
<path d="M13 15.7424C13 16.2947 10.8807 16.7424 9.5 16.7424C8.11929 16.7424 8 16.2947 8 15.7424C8 15.1901 9.11929 14.7424 10.5 14.7424C11.8807 14.7424 13 15.1901 13 15.7424Z" fill="#190D09"/>
<path d="M31.5 12.7424C31.5 12.7424 34.1747 13.7959 35.1799 13.4728C36.1851 13.1496 35.476 12.6313 33.5961 12.3151C29.6996 11.6595 31.5 12.7424 31.5 12.7424Z" fill="#190D09"/>
<path d="M27 15.7424C27 16.2947 29.1193 16.7424 30.5 16.7424C31.8807 16.7424 32 16.2947 32 15.7424C32 15.1901 30.8807 14.7424 29.5 14.7424C28.1193 14.7424 27 15.1901 27 15.7424Z" fill="#190D09"/>
</svg>
