<svg width="40" height="40" viewBox="0 0 40 40" fill="none" xmlns="http://www.w3.org/2000/svg">
<rect width="40" height="40" fill="#FFF7E2"/>
<path d="M25 26.5913C25 27.9216 22.7614 29 20 29C17.2386 29 15 27.9216 15 26.5913C15 25.2609 17.2386 26.5912 20 26.5912C22.7614 26.5912 25 25.2609 25 26.5913Z" fill="#190D09"/>
<path d="M22 21C22 21.5523 21.1046 21 20 21C18.8954 21 18 21.5523 18 21C18 20.4477 18.8954 20 20 20C21.1046 20 22 20.4477 22 21Z" fill="#190D09"/>
<path d="M13.6279 11.5851C14.6331 11.9082 12.4519 11.9533 10.5719 12.2696C8.692 12.5858 7.82526 13.0535 6.82006 12.7303C5.81487 12.4072 6.52399 11.8889 8.40393 11.5726C10.2839 11.2564 12.6227 11.2619 13.6279 11.5851Z" fill="#190D09"/>
<circle cx="12" cy="15" r="1" fill="#190D09"/>
<path d="M26.5586 11.5851C25.5534 11.9082 27.7346 11.9533 29.6146 12.2696C31.4945 12.5858 32.3613 13.0535 33.3665 12.7303C34.3717 12.4072 33.6625 11.8889 31.7826 11.5726C29.9027 11.2564 27.5638 11.2619 26.5586 11.5851Z" fill="#190D09"/>
<circle cx="1" cy="1" r="1" transform="matrix(-1 0 0 1 29.1865 14)" fill="#190D09"/>
</svg>
