<svg width="40" height="40" viewBox="0 0 40 40" fill="none" xmlns="http://www.w3.org/2000/svg">
<rect width="40" height="40" fill="#FFF7E2"/>
<path d="M13 28.4022C13 27.5571 16.5817 28.1097 21 28.1097C25.4183 28.1097 29 27.5571 29 28.4022C29 29.2472 25.4183 29.9323 21 29.9323C16.5817 29.9322 13 29.2472 13 28.4022Z" fill="#190D09"/>
<path d="M20.4699 24.9323C20 24.4323 21.1774 24.5891 21.1774 22.9323C21.1774 21.2754 19.6248 18.9323 20.4699 18.9323C21.3149 18.9323 23 21.2754 23 22.9323C23 24.5891 21.5 24.9323 20.4699 24.9323Z" fill="#190D09"/>
<path d="M13 15.4783C13 16.2947 12.1046 15.7609 11 15.7609C9.89543 15.7609 9 16.2947 9 15.4783C9 14.6618 9.89543 14 11 14C12.1046 14 13 14.6618 13 15.4783Z" fill="#190D09"/>
<path d="M13 10.765C13 11.1876 12.1046 10.9113 11 10.9113C9.89543 10.9113 9 11.1876 9 10.765C9 10.3425 9.89543 10 11 10C12.1046 10 13 10.3425 13 10.765Z" fill="#190D09"/>
<path d="M32 15.4783C32 16.2947 31.1046 15.7609 30 15.7609C28.8954 15.7609 28 16.2947 28 15.4783C28 14.6618 28.8954 14 30 14C31.1046 14 32 14.6618 32 15.4783Z" fill="#190D09"/>
<path d="M32 10.765C32 11.1876 31.1046 10.9113 30 10.9113C28.8954 10.9113 28 11.1876 28 10.765C28 10.3425 28.8954 10 30 10C31.1046 10 32 10.3425 32 10.765Z" fill="#190D09"/>
</svg>
