<svg width="40" height="40" viewBox="0 0 40 40" fill="none" xmlns="http://www.w3.org/2000/svg">
<rect width="40" height="40" fill="#FFF7E2"/>
<path d="M13 14.2174C13 15.0338 12.1046 14.5 11 14.5C9.89543 14.5 9 15.0338 9 14.2174C9 13.401 9.89543 12.7391 11 12.7391C12.1046 12.7391 13 13.401 13 14.2174Z" fill="#190D09"/>
<path d="M32 14.2174C32 15.0338 31.1046 14.5 30 14.5C28.8954 14.5 28 15.0338 28 14.2174C28 13.401 28.8954 12.7391 30 12.7391C31.1046 12.7391 32 13.401 32 14.2174Z" fill="#190D09"/>
<path d="M29.9108 21.1482C30.9479 20.8264 31.9891 21.6208 31.6279 22.6448C31.495 23.0214 31.327 23.3917 31.1246 23.7528C30.5467 24.7841 29.6996 25.7211 28.6317 26.5104C27.5639 27.2997 26.2961 27.9258 24.9009 28.353C23.5056 28.7801 22.0102 29 20.5 29C18.9898 29 17.4944 28.7801 16.0991 28.353C14.7039 27.9258 13.4361 27.2997 12.3683 26.5104C11.3004 25.7211 10.4533 24.7841 9.87539 23.7528C9.673 23.3917 9.50501 23.0214 9.37214 22.6448C9.01086 21.6208 10.0521 20.8264 11.0892 21.1482V21.1482C11.7636 21.3574 12.1965 21.9914 12.3771 22.6741C12.4826 23.0729 12.6419 23.4639 12.8533 23.8411C13.2692 24.5833 13.8789 25.2577 14.6475 25.8258C15.416 26.3939 16.3284 26.8445 17.3326 27.1519C18.3368 27.4594 19.4131 27.6176 20.5 27.6176C21.5869 27.6176 22.6632 27.4594 23.6674 27.1519C24.6716 26.8445 25.584 26.3939 26.3525 25.8258C27.1211 25.2577 27.7308 24.5833 28.1467 23.8411C28.3581 23.4639 28.5174 23.0729 28.6229 22.6741C28.8035 21.9914 29.2364 21.3574 29.9108 21.1482V21.1482Z" fill="#190D09"/>
</svg>
