<svg width="110" height="37" viewBox="0 0 110 37" fill="none" xmlns="http://www.w3.org/2000/svg">
<path d="M4.65296 20.224C4.1054 20.224 3.5934 20.1742 3.11696 20.0747C2.64763 19.9822 2.25296 19.8578 1.93296 19.7013C1.61296 19.5449 1.34985 19.3956 1.14363 19.2533C0.944515 19.1111 0.777404 18.9689 0.642292 18.8267L0.908959 16.2347C1.20051 16.6258 1.59163 16.9671 2.08229 17.2587C2.57296 17.5431 3.10274 17.6853 3.67163 17.6853C4.24051 17.6853 4.6494 17.6249 4.89829 17.504C5.15429 17.3831 5.28229 17.1627 5.28229 16.8427C5.28229 16.5013 5.13651 16.2098 4.84496 15.968C4.56051 15.7262 4.06629 15.4347 3.36229 15.0933C3.10629 14.9653 2.8894 14.8516 2.71163 14.752C2.53385 14.6453 2.29563 14.4747 1.99696 14.24C1.7054 13.9982 1.46718 13.7493 1.28229 13.4933C1.0974 13.2302 0.933848 12.896 0.791626 12.4907C0.649404 12.0782 0.578292 11.6373 0.578292 11.168C0.578292 8.62933 2.01118 7.36 4.87696 7.36C5.33207 7.36 5.75874 7.40978 6.15696 7.50933C6.56229 7.60178 6.87874 7.70489 7.10629 7.81867C7.33385 7.93244 7.54007 8.06756 7.72496 8.224C7.91696 8.37333 8.03785 8.48 8.08763 8.544C8.1374 8.60089 8.17296 8.64711 8.19429 8.68267L7.66096 10.7413C7.38363 10.4142 7.03518 10.1724 6.61563 10.016C6.20318 9.85244 5.80851 9.77067 5.43163 9.77067C4.5214 9.77067 4.06629 10.0551 4.06629 10.624C4.06629 10.7733 4.09474 10.9084 4.15163 11.0293C4.20851 11.1502 4.30096 11.2604 4.42896 11.36C4.55696 11.4596 4.67429 11.5449 4.78096 11.616C4.89474 11.6871 5.04763 11.776 5.23963 11.8827C5.43874 11.9822 5.58807 12.064 5.68763 12.128C6.72585 12.5689 7.48674 13.0916 7.97029 13.696C8.46096 14.3004 8.70629 15.0364 8.70629 15.904C8.70629 17.312 8.35785 18.3858 7.66096 19.1253C6.97118 19.8578 5.96851 20.224 4.65296 20.224ZM20.5992 20H13.0365V7.49867H20.4392L20.2259 10.016L16.5672 9.90933V12.32H19.4472V14.816L16.5672 14.6027V17.44L20.5992 17.3333V20ZM28.1598 20H24.7678V8.50133L24.2451 7.49867H28.1705L30.1331 11.552L32.0105 15.5947L31.4878 10.848V7.49867H34.8905V20H31.6371L29.0985 15.0613L27.5305 11.968L28.1598 16.064V20ZM41.5143 20V10.3253H39.0183V7.49867H47.6156V10.3253H45.1196V20H41.5143ZM55.3775 15.168C55.3775 16.3484 55.4664 17.1698 55.6442 17.632C55.8291 18.0942 56.1491 18.3253 56.6042 18.3253C56.9384 18.3253 57.1909 18.2436 57.3615 18.08C57.5322 17.9093 57.6602 17.5644 57.7455 17.0453C57.838 16.5191 57.8842 15.7333 57.8842 14.688V12.1173C57.8842 11.1004 57.7847 10.3431 57.5855 9.84533C57.3864 9.34756 57.0593 9.09867 56.6042 9.09867C56.1491 9.09867 55.8291 9.344 55.6442 9.83467C55.4664 10.3182 55.3775 11.2036 55.3775 12.4907V15.168ZM56.3802 20.224C55.79 20.224 55.2567 20.1707 54.7802 20.064C54.3109 19.9573 53.9055 19.808 53.5642 19.616C53.2229 19.424 52.9242 19.1787 52.6682 18.88C52.4193 18.5813 52.2167 18.2613 52.0602 17.92C51.9109 17.5787 51.79 17.1804 51.6975 16.7253C51.6051 16.2631 51.5411 15.8044 51.5055 15.3493C51.47 14.8871 51.4522 14.368 51.4522 13.792C51.4522 12.9387 51.4949 12.1956 51.5802 11.5627C51.6727 10.9298 51.8398 10.336 52.0815 9.78133C52.3233 9.21956 52.6433 8.76444 53.0415 8.416C53.4469 8.06756 53.966 7.79378 54.5989 7.59467C55.2389 7.39556 55.9927 7.296 56.8602 7.296C57.4575 7.296 57.9944 7.35289 58.4709 7.46667C58.9473 7.57333 59.3562 7.72267 59.6975 7.91467C60.0389 8.10667 60.334 8.35556 60.5829 8.66133C60.8389 8.96711 61.0415 9.29422 61.1909 9.64267C61.3473 9.984 61.4718 10.3858 61.5642 10.848C61.6567 11.3102 61.7207 11.7689 61.7562 12.224C61.7918 12.6791 61.8095 13.1947 61.8095 13.7707C61.8095 14.624 61.7633 15.3671 61.6709 16C61.5784 16.6329 61.4113 17.2267 61.1695 17.7813C60.9278 18.3289 60.6042 18.7769 60.1989 19.1253C59.7935 19.4667 59.2709 19.7369 58.6309 19.936C57.998 20.128 57.2478 20.224 56.3802 20.224ZM77.1297 20H73.599V7.49867H80.639V10.2187L77.1297 10.0053V12.9067H80.0097V15.552L77.1297 15.3387V20ZM89.5373 20.224C88.8049 20.224 88.1542 20.1529 87.5853 20.0107C87.0235 19.8684 86.5613 19.6764 86.1986 19.4347C85.8431 19.1929 85.548 18.8942 85.3133 18.5387C85.0857 18.176 84.9257 17.7956 84.8333 17.3973C84.7409 16.9991 84.6946 16.5582 84.6946 16.0747V7.49867H88.492V15.5947C88.492 16.4978 88.5844 17.12 88.7693 17.4613C88.9613 17.7956 89.2386 17.9627 89.6013 17.9627C89.8004 17.9627 89.9746 17.9307 90.124 17.8667C90.2733 17.7956 90.412 17.6782 90.54 17.5147C90.668 17.344 90.764 17.1022 90.828 16.7893C90.8991 16.4693 90.9346 16.0818 90.9346 15.6267V7.49867H94.3053V16.1387C94.3053 16.6151 94.2626 17.0453 94.1773 17.4293C94.0991 17.8133 93.9497 18.1867 93.7293 18.5493C93.516 18.9049 93.2315 19.2036 92.876 19.4453C92.5275 19.68 92.0689 19.8684 91.5 20.0107C90.9382 20.1529 90.284 20.224 89.5373 20.224ZM102.329 20H98.9365V8.50133L98.4139 7.49867H102.339L104.302 11.552L106.179 15.5947L105.657 10.848V7.49867H109.059V20H105.806L103.267 15.0613L101.699 11.968L102.329 16.064V20ZM43.9968 32V28.372H43.0608V27.312H46.2848V28.372H45.3488V32H43.9968ZM49.1955 30.188C49.1955 30.6307 49.2288 30.9387 49.2955 31.112C49.3648 31.2853 49.4848 31.372 49.6555 31.372C49.7808 31.372 49.8755 31.3413 49.9395 31.28C50.0035 31.216 50.0515 31.0867 50.0835 30.892C50.1182 30.6947 50.1355 30.4 50.1355 30.008V29.044C50.1355 28.6627 50.0982 28.3787 50.0235 28.192C49.9488 28.0053 49.8262 27.912 49.6555 27.912C49.4848 27.912 49.3648 28.004 49.2955 28.188C49.2288 28.3693 49.1955 28.7013 49.1955 29.184V30.188ZM49.5715 32.084C49.3502 32.084 49.1502 32.064 48.9715 32.024C48.7955 31.984 48.6435 31.928 48.5155 31.856C48.3875 31.784 48.2755 31.692 48.1795 31.58C48.0862 31.468 48.0102 31.348 47.9515 31.22C47.8955 31.092 47.8502 30.9427 47.8155 30.772C47.7808 30.5987 47.7568 30.4267 47.7435 30.256C47.7302 30.0827 47.7235 29.888 47.7235 29.672C47.7235 29.352 47.7395 29.0733 47.7715 28.836C47.8062 28.5987 47.8688 28.376 47.9595 28.168C48.0502 27.9573 48.1702 27.7867 48.3195 27.656C48.4715 27.5253 48.6662 27.4227 48.9035 27.348C49.1435 27.2733 49.4262 27.236 49.7515 27.236C49.9755 27.236 50.1768 27.2573 50.3555 27.3C50.5342 27.34 50.6875 27.396 50.8155 27.468C50.9435 27.54 51.0542 27.6333 51.1475 27.748C51.2435 27.8627 51.3195 27.9853 51.3755 28.116C51.4342 28.244 51.4808 28.3947 51.5155 28.568C51.5502 28.7413 51.5742 28.9133 51.5875 29.084C51.6008 29.2547 51.6075 29.448 51.6075 29.664C51.6075 29.984 51.5902 30.2627 51.5555 30.5C51.5208 30.7373 51.4582 30.96 51.3675 31.168C51.2768 31.3733 51.1555 31.5413 51.0035 31.672C50.8515 31.8 50.6555 31.9013 50.4155 31.976C50.1782 32.048 49.8968 32.084 49.5715 32.084ZM55.4911 32C55.4591 31.96 55.3897 31.804 55.2831 31.532C55.1791 31.2573 55.0564 30.948 54.9151 30.604C54.7764 30.2573 54.6537 29.9947 54.5471 29.816V32H53.2231V27.312H54.5471V29.556L55.5431 27.312H56.8751L55.6831 29.512C55.7604 29.5653 55.8631 29.7107 55.9911 29.948C56.1191 30.1853 56.2391 30.4347 56.3511 30.696C56.4631 30.9573 56.5791 31.22 56.6991 31.484C56.8191 31.7453 56.9071 31.9173 56.9631 32H55.4911ZM59.2323 32V30.536L57.9043 27.312H59.4203L59.8323 28.52L60.1083 29.508L60.3363 28.52L60.6483 27.312H61.8403L60.6683 30.512V32H59.2323ZM64.4556 30.188C64.4556 30.6307 64.489 30.9387 64.5556 31.112C64.625 31.2853 64.745 31.372 64.9156 31.372C65.041 31.372 65.1356 31.3413 65.1996 31.28C65.2636 31.216 65.3116 31.0867 65.3436 30.892C65.3783 30.6947 65.3956 30.4 65.3956 30.008V29.044C65.3956 28.6627 65.3583 28.3787 65.2836 28.192C65.209 28.0053 65.0863 27.912 64.9156 27.912C64.745 27.912 64.625 28.004 64.5556 28.188C64.489 28.3693 64.4556 28.7013 64.4556 29.184V30.188ZM64.8316 32.084C64.6103 32.084 64.4103 32.064 64.2316 32.024C64.0556 31.984 63.9036 31.928 63.7756 31.856C63.6476 31.784 63.5356 31.692 63.4396 31.58C63.3463 31.468 63.2703 31.348 63.2116 31.22C63.1556 31.092 63.1103 30.9427 63.0756 30.772C63.041 30.5987 63.017 30.4267 63.0036 30.256C62.9903 30.0827 62.9836 29.888 62.9836 29.672C62.9836 29.352 62.9996 29.0733 63.0316 28.836C63.0663 28.5987 63.129 28.376 63.2196 28.168C63.3103 27.9573 63.4303 27.7867 63.5796 27.656C63.7316 27.5253 63.9263 27.4227 64.1636 27.348C64.4036 27.2733 64.6863 27.236 65.0116 27.236C65.2356 27.236 65.437 27.2573 65.6156 27.3C65.7943 27.34 65.9476 27.396 66.0756 27.468C66.2036 27.54 66.3143 27.6333 66.4076 27.748C66.5036 27.8627 66.5796 27.9853 66.6356 28.116C66.6943 28.244 66.741 28.3947 66.7756 28.568C66.8103 28.7413 66.8343 28.9133 66.8476 29.084C66.861 29.2547 66.8676 29.448 66.8676 29.664C66.8676 29.984 66.8503 30.2627 66.8156 30.5C66.781 30.7373 66.7183 30.96 66.6276 31.168C66.537 31.3733 66.4156 31.5413 66.2636 31.672C66.1116 31.8 65.9156 31.9013 65.6756 31.976C65.4383 32.048 65.157 32.084 64.8316 32.084Z" fill="#190D09"/>
</svg>
