<svg width="32" height="32" viewBox="0 0 32 32" fill="none" xmlns="http://www.w3.org/2000/svg">
<circle cx="16" cy="16" r="16" fill="#FF5252"/>
<path d="M18.82 10.74H19.04C20.6 10.74 21.88 11.26 22.84 12.12C24.06 13.2 24.7 14.92 24.7 16.8C24.7 18.88 23.84 20.14 22.6 21.04C21.62 21.74 20.24 22.18 18.68 22.18H18.5C18.16 22.74 17.68 23.22 17.12 23.62C16.04 24.42 14.68 24.98 12.96 25.32C12.86 25.34 12.76 25.36 12.68 25.36C12.6 25.36 12.56 25.3 12.56 25.24C12.56 25.2 12.6 25.14 12.66 25.1C14.12 24.46 14.96 23.72 15.62 23.06C15.98 22.7 16.28 22.34 16.52 21.94C15.78 21.74 15.16 21.44 14.68 20.98C13.74 20.1 13.14 18.7 13.14 16.18V15.3C12.36 16.4 11.76 17.52 11.34 18.48C11.04 19.16 10.8 19.88 10.8 20.28C10.8 20.52 10.92 20.84 11.06 21.1C11.18 21.34 11.26 21.6 11.26 21.86C11.26 22.4 10.84 22.82 10.24 22.82C9.54 22.82 8.86 22.34 8.32 21.56C7.78 20.78 7.38 19.68 7.38 18.32C7.38 17.6 7.48 16.86 7.6 16.16C7.8 15 8.06 13.84 8.3 12.76C8.42 12.18 8.58 11.36 8.58 11.04C8.58 10.68 8.38 10.34 7.94 9.8C7.9 9.76 7.9 9.72 7.9 9.68C7.9 9.58 8 9.52 8.14 9.54C8.44 9.58 8.74 9.68 9.02 9.82C9.34 9.98 9.66 10.22 9.9 10.46C10.42 10.96 10.76 11.56 10.76 12.14C10.76 12.46 10.68 12.76 10.5 13.02C10.34 13.26 10.16 13.56 10.02 13.88C9.64 14.72 9.26 15.76 9.02 16.62C8.88 17.14 8.74 17.84 8.74 18.26C8.74 18.86 8.92 19.1 9.1 19.1C9.32 19.1 9.56 18.7 9.98 18.04C10.68 16.98 11.72 15.32 13.2 13.74C13.22 13.68 13.22 13.62 13.22 13.56C13.38 11.36 13.98 9.8 14.5 9C15.08 8.16 15.68 7.88 16.16 7.88C16.9 7.88 17.62 8.24 18.14 9.02C18.4 9.4 18.62 9.98 18.82 10.74ZM22.68 15.82C22.68 14.32 22.38 13.08 21.46 12.24C20.78 11.62 19.82 11.42 18.96 11.42C19.26 12.94 19.44 14.98 19.44 17.36C19.44 18.32 19.38 19.18 19.26 19.96C20.16 19.82 20.82 19.52 21.3 19.18C22.32 18.46 22.68 17.18 22.68 15.82ZM14.08 12.88C15.04 12.04 16.02 11.38 17.26 11C17.14 10.26 16.96 9.66 16.8 9.24C16.62 8.82 16.32 8.62 15.98 8.62C15.76 8.62 15.42 8.72 15.04 9.26C14.58 9.98 14.2 11.18 14.08 12.88ZM14.04 14.2V14.96C14.04 17.44 14.8 18.74 15.64 19.38C16.12 19.74 16.64 19.92 17.22 20C17.52 18.6 17.58 16.96 17.58 14.96C17.58 13.7 17.5 12.62 17.38 11.74C16.32 12.12 15.3 12.88 14.46 13.74C14.32 13.9 14.18 14.04 14.04 14.2Z" fill="white"/>
</svg>
