<svg width="44" height="44" viewBox="0 0 44 44" fill="none" xmlns="http://www.w3.org/2000/svg">
<path d="M25.8775 14.7675H26.18C28.325 14.7675 30.085 15.4825 31.405 16.665C33.0825 18.15 33.9625 20.515 33.9625 23.1C33.9625 25.96 32.78 27.6925 31.075 28.93C29.7275 29.8925 27.83 30.4975 25.685 30.4975H25.4375C24.97 31.2675 24.31 31.9275 23.54 32.4775C22.055 33.5775 20.185 34.3475 17.82 34.815C17.6825 34.8425 17.545 34.87 17.435 34.87C17.325 34.87 17.27 34.7875 17.27 34.705C17.27 34.65 17.325 34.5675 17.4075 34.5125C19.415 33.6325 20.57 32.615 21.4775 31.7075C21.9725 31.2125 22.385 30.7175 22.715 30.1675C21.6975 29.8925 20.845 29.48 20.185 28.8475C18.8925 27.6375 18.0675 25.7125 18.0675 22.2475V21.0375C16.995 22.55 16.17 24.09 15.5925 25.41C15.18 26.345 14.85 27.335 14.85 27.885C14.85 28.215 15.015 28.655 15.2075 29.0125C15.3725 29.3425 15.4825 29.7 15.4825 30.0575C15.4825 30.8 14.905 31.3775 14.08 31.3775C13.1175 31.3775 12.1825 30.7175 11.44 29.645C10.6975 28.5725 10.1475 27.06 10.1475 25.19C10.1475 24.2 10.285 23.1825 10.45 22.22C10.725 20.625 11.0825 19.03 11.4125 17.545C11.5775 16.7475 11.7975 15.62 11.7975 15.18C11.7975 14.685 11.5225 14.2175 10.9175 13.475C10.8625 13.42 10.8625 13.365 10.8625 13.31C10.8625 13.1725 11 13.09 11.1925 13.1175C11.605 13.1725 12.0175 13.31 12.4025 13.5025C12.8425 13.7225 13.2825 14.0525 13.6125 14.3825C14.3275 15.07 14.795 15.895 14.795 16.6925C14.795 17.1325 14.685 17.545 14.4375 17.9025C14.2175 18.2325 13.97 18.645 13.7775 19.085C13.255 20.24 12.7325 21.67 12.4025 22.8525C12.21 23.5675 12.0175 24.53 12.0175 25.1075C12.0175 25.9325 12.265 26.2625 12.5125 26.2625C12.815 26.2625 13.145 25.7125 13.7225 24.805C14.685 23.3475 16.115 21.065 18.15 18.8925C18.1775 18.81 18.1775 18.7275 18.1775 18.645C18.3975 15.62 19.2225 13.475 19.9375 12.375C20.735 11.22 21.56 10.835 22.22 10.835C23.2375 10.835 24.2275 11.33 24.9425 12.4025C25.3 12.925 25.6025 13.7225 25.8775 14.7675ZM31.185 21.7525C31.185 19.69 30.7725 17.985 29.5075 16.83C28.5725 15.9775 27.2525 15.7025 26.07 15.7025C26.4825 17.7925 26.73 20.5975 26.73 23.87C26.73 25.19 26.6475 26.3725 26.4825 27.445C27.72 27.2525 28.6275 26.84 29.2875 26.3725C30.69 25.3825 31.185 23.6225 31.185 21.7525ZM19.36 17.71C20.68 16.555 22.0275 15.6475 23.7325 15.125C23.5675 14.1075 23.32 13.2825 23.1 12.705C22.8525 12.1275 22.44 11.8525 21.9725 11.8525C21.67 11.8525 21.2025 11.99 20.68 12.7325C20.0475 13.7225 19.525 15.3725 19.36 17.71ZM19.305 19.525V20.57C19.305 23.98 20.35 25.7675 21.505 26.6475C22.165 27.1425 22.88 27.39 23.6775 27.5C24.09 25.575 24.1725 23.32 24.1725 20.57C24.1725 18.8375 24.0625 17.3525 23.8975 16.1425C22.44 16.665 21.0375 17.71 19.8825 18.8925C19.69 19.1125 19.4975 19.305 19.305 19.525Z" fill="white"/>
</svg>
